<svg width="6" height="6" viewBox="0 0 6 6" fill="none" xmlns="http://www.w3.org/2000/svg">
<g clip-path="url(#clip0_515_4)">
<path d="M4.8947 5.75927C4.57066 6.0759 4.21688 6.02591 3.87631 5.87593C3.51591 5.72261 3.18526 5.71595 2.80502 5.87593C2.32889 6.08257 2.0776 6.02258 1.79325 5.75927C0.179697 4.08282 0.417761 1.5298 2.24954 1.43649C2.69591 1.45982 3.00671 1.68312 3.26793 1.70312C3.65809 1.62313 4.03172 1.39316 4.44833 1.42316C4.94761 1.46315 5.32454 1.66312 5.57252 2.02307C4.54091 2.64633 4.78559 4.01616 5.73123 4.39944C5.54276 4.89939 5.29809 5.39599 4.89139 5.76261L4.8947 5.75927ZM3.23486 1.41648C3.18526 0.673248 3.78373 0.0599924 4.47148 0C4.56736 0.859891 3.69776 1.49981 3.23486 1.41648Z" fill="black"/>
</g>
<defs>
<clipPath id="clip0_515_4">
<rect width="5.01493" height="6" fill="white" transform="translate(0.716309)"/>
</clipPath>
</defs>
</svg>
