<svg width="58" height="58" viewBox="0 0 58 58" fill="none" xmlns="http://www.w3.org/2000/svg">
<g clip-path="url(#clip0_324_2526)">
<path d="M20.2047 1.908C14.4096 3.91837 9.41193 7.73413 5.94573 12.7948C2.47954 17.8554 0.727548 23.8943 0.947091 30.0242C1.16663 36.1542 3.34614 42.0522 7.16548 46.852C10.9848 51.6517 16.2427 55.1002 22.1667 56.6908C26.9695 57.9301 32.0014 57.9845 36.8299 56.8494C41.204 55.8669 45.2479 53.7653 48.5658 50.7503C52.019 47.5166 54.5255 43.4028 55.8158 38.8513C57.2178 33.9016 57.4674 28.6965 56.5453 23.6353H29.5753V34.823H45.1946C44.8824 36.6073 44.2135 38.3104 43.2278 39.8302C42.2421 41.35 40.9599 42.6553 39.458 43.668C37.551 44.9301 35.4008 45.779 33.146 46.1602C30.8846 46.5808 28.5651 46.5808 26.3038 46.1602C24.0117 45.6868 21.8434 44.7408 19.9374 43.3825C16.8749 41.2147 14.5754 38.135 13.3671 34.5828C12.1386 30.9641 12.1386 27.0411 13.3671 23.4224C14.2272 20.8859 15.6491 18.5764 17.5267 16.6663C19.6754 14.4403 22.3957 12.8491 25.3892 12.0674C28.3826 11.2857 31.5336 11.3436 34.4963 12.2347C36.8108 12.9449 38.9273 14.1862 40.6769 15.8597C42.438 14.1076 44.1962 12.351 45.9513 10.5899C46.8575 9.64284 47.8453 8.74112 48.738 7.77144C46.067 5.28613 42.9319 3.35213 39.5124 2.08019C33.2851 -0.180954 26.4713 -0.24172 20.2047 1.908Z" fill="white"/>
<path d="M20.2047 1.90727C26.4708 -0.243908 33.2846 -0.184742 39.5124 2.07493C42.9325 3.35551 46.0661 5.29882 48.7335 7.79336C47.8272 8.76305 46.8711 9.6693 45.9467 10.6118C44.1886 12.3669 42.432 14.116 40.6769 15.859C38.9273 14.1855 36.8108 12.9441 34.4963 12.234C31.5345 11.3397 28.3837 11.2785 25.3895 12.057C22.3952 12.8355 19.6732 14.4238 17.5222 16.6474C15.6446 18.5575 14.2227 20.867 13.3625 23.4035L3.96924 16.1309C7.33146 9.46341 13.1529 4.36332 20.2047 1.90727Z" fill="#E33629"/>
<path d="M1.47739 23.3355C1.9819 20.8333 2.82012 18.41 3.96958 16.1309L13.3629 23.4216C12.1344 27.0404 12.1344 30.9634 13.3629 34.5821C10.2333 36.9988 7.10218 39.4275 3.96958 41.8684C1.09292 36.1423 0.215584 29.6181 1.47739 23.3355Z" fill="#F8BD00"/>
<path d="M29.5753 23.6309H56.5453C57.4673 28.692 57.2178 33.8971 55.8157 38.8468C54.5254 43.3983 52.0189 47.5121 48.5657 50.7459C45.5343 48.3805 42.4893 46.0334 39.4579 43.668C40.9608 42.6543 42.2436 41.3476 43.2293 39.8261C44.2151 38.3047 44.8835 36.5999 45.1945 34.814H29.5753C29.5707 31.0893 29.5753 27.3601 29.5753 23.6309Z" fill="#587DBD"/>
<path d="M3.96484 41.8683C7.09745 39.4516 10.2285 37.0229 13.3581 34.582C14.5689 38.1354 16.8717 41.2153 19.9375 43.3817C21.8495 44.7337 24.0224 45.672 26.3175 46.1367C28.5788 46.5573 30.8983 46.5573 33.1597 46.1367C35.4146 45.7556 37.5647 44.9066 39.4717 43.6445C42.5031 46.0098 45.5481 48.357 48.5795 50.7223C45.2622 53.7389 41.2181 55.8421 36.8436 56.8259C32.0151 57.961 26.9832 57.9066 22.1805 56.6673C18.3819 55.6531 14.8338 53.8652 11.7586 51.4156C8.50392 48.8311 5.84547 45.5745 3.96484 41.8683Z" fill="#319F43"/>
</g>
<defs>
<clipPath id="clip0_324_2526">
<rect width="58" height="58" fill="white"/>
</clipPath>
</defs>
</svg>
