<svg width="195" height="188" viewBox="0 0 195 188" fill="none" xmlns="http://www.w3.org/2000/svg">
<mask id="mask0_317_38" style="mask-type:luminance" maskUnits="userSpaceOnUse" x="0" y="0" width="195" height="188">
<path d="M0 187.063H194.374V-0.000274658H0V187.063Z" fill="white"/>
</mask>
<g mask="url(#mask0_317_38)">
<path fill-rule="evenodd" clip-rule="evenodd" d="M142.825 165.569C143.049 164.338 143.086 163.881 143.314 162.65C146.998 162.46 150.499 163.042 153.996 163.623C151.607 165.21 146.794 165.741 142.825 165.569ZM51.4769 166.39C47.4766 166.132 42.8136 165.1 40.8151 163.294C44.4416 163.101 48.0714 162.908 51.6979 163.487C51.6231 164.714 51.5517 165.165 51.4769 166.39ZM156.804 162.3C149.911 160.434 146.298 160.945 141.479 160.885L140.82 166.841C112.746 171.192 83.2925 170.836 54.0498 166.723C53.5943 164.195 54.0124 163.095 53.5366 161.476C44.5639 160.98 37.4809 161.259 37.3994 163.863C37.3994 167.767 37.3994 174.2 37.3994 178.1C76.5086 187.013 117.695 187.135 156.804 177.741C156.804 174.488 156.804 165.551 156.804 162.3Z" fill="#BA8F4A"/>
<path fill-rule="evenodd" clip-rule="evenodd" d="M185.222 152.634C185.596 148.019 174.115 145.343 164.683 150.13C153.655 158.177 175.597 160.254 179.736 154.381C180.926 152.269 178.866 151.809 177.024 152.865C173.598 154.832 165.574 155.502 166.362 152.5C168.684 149.92 177.755 149.979 179.325 150.765C190.922 155.781 167.64 162.25 162.005 159.138C147.754 154.858 141.973 157.43 142.102 157.833C141.939 159.749 143.717 159.619 147.727 159.474C151.265 159.349 155.272 159.675 158.338 161.191C158.338 165.053 158.722 169.751 158.722 173.61C168.12 174.025 176.378 172.934 183.563 168.532C183.543 163.733 185.82 153.921 185.222 152.634Z" fill="#BA8F4A"/>
<path fill-rule="evenodd" clip-rule="evenodd" d="M146.494 174.718L147.782 174.371C148.132 175.222 148.72 175.584 149.546 175.448C149.95 175.383 150.253 175.24 150.443 175.021C150.637 174.804 150.701 174.561 150.64 174.297C150.606 174.14 150.535 174.015 150.429 173.917C150.321 173.822 150.175 173.754 149.991 173.71C149.807 173.668 149.379 173.615 148.696 173.555C148.088 173.502 147.629 173.413 147.323 173.283C147.017 173.155 146.752 172.965 146.528 172.713C146.307 172.458 146.161 172.17 146.086 171.85C145.997 171.473 146.021 171.12 146.154 170.788C146.286 170.456 146.514 170.183 146.834 169.972C147.156 169.762 147.578 169.614 148.101 169.527C148.89 169.397 149.542 169.477 150.066 169.765C150.593 170.05 150.946 170.527 151.123 171.191L149.787 171.473C149.641 171.111 149.454 170.877 149.223 170.761C148.995 170.649 148.696 170.622 148.332 170.681C147.969 170.741 147.704 170.85 147.537 171.008C147.371 171.171 147.306 171.343 147.35 171.536C147.394 171.722 147.52 171.865 147.727 171.963C147.938 172.063 148.38 172.135 149.056 172.185C149.773 172.238 150.304 172.333 150.647 172.467C150.994 172.6 151.279 172.799 151.503 173.06C151.731 173.324 151.891 173.659 151.986 174.072C152.125 174.668 152.02 175.205 151.68 175.682C151.337 176.16 150.701 176.474 149.777 176.625C148.135 176.892 147.041 176.257 146.494 174.718ZM139.142 170.996L140.492 170.797L141.273 174.525C141.396 175.107 141.491 175.48 141.562 175.652C141.684 175.946 141.875 176.16 142.137 176.293C142.395 176.427 142.711 176.465 143.078 176.409C143.391 176.364 143.632 176.266 143.809 176.121C143.979 175.973 144.081 175.789 144.108 175.569C144.138 175.353 144.081 174.899 143.938 174.214L143.139 170.402L144.495 170.201L145.253 173.819C145.447 174.745 145.528 175.421 145.498 175.848C145.464 176.278 145.274 176.652 144.913 176.966C144.556 177.287 144.04 177.491 143.367 177.592C142.667 177.696 142.099 177.672 141.661 177.518C141.226 177.367 140.879 177.109 140.621 176.753C140.362 176.397 140.128 175.703 139.91 174.671L139.142 170.996ZM132.766 178.793L131.753 171.853L133.796 171.642L135.716 176.252L136.24 171.39L138.286 171.177L139.299 178.12L138.034 178.251L137.236 172.784L136.688 178.39L135.373 178.524L133.242 173.199L134.037 178.663L132.766 178.793ZM129.16 176.516L127.906 174.015L127.311 176.679L129.16 176.516ZM132.025 179.043L130.537 179.176L129.748 177.646L127.039 177.886L126.679 179.517L125.224 179.645L126.995 172.455L128.443 172.327L132.025 179.043ZM119.916 174.193L120.395 178.808L121.425 178.731C121.863 178.702 122.183 178.642 122.369 178.559C122.563 178.473 122.713 178.357 122.825 178.206C122.937 178.055 123.019 177.827 123.07 177.515C123.121 177.204 123.117 176.8 123.066 176.302C123.012 175.789 122.927 175.383 122.815 175.092C122.696 174.801 122.543 174.576 122.346 174.419C122.149 174.258 121.921 174.163 121.659 174.128C121.459 174.101 121.088 174.107 120.538 174.149L119.916 174.193ZM118.43 173.116L120.928 172.933C121.561 172.885 122.047 172.909 122.38 173.004C122.713 173.099 123.032 173.28 123.331 173.541C123.634 173.802 123.882 174.152 124.086 174.591C124.286 175.03 124.422 175.581 124.49 176.252C124.555 176.854 124.528 177.382 124.412 177.841C124.297 178.298 124.127 178.663 123.906 178.945C123.681 179.221 123.403 179.437 123.066 179.594C122.726 179.752 122.281 179.852 121.727 179.894L119.154 180.084L118.43 173.116ZM112.816 180.395L112.381 173.413L117.431 173.188L117.506 174.371L113.822 174.534L113.92 176.083L117.339 175.931L117.414 177.106L113.992 177.257L114.111 179.158L117.917 178.989L117.988 180.167L112.816 180.395ZM110.195 177.904L111.544 178.298C111.368 179.087 111.048 179.668 110.579 180.042C110.11 180.419 109.522 180.615 108.815 180.635C107.928 180.662 107.198 180.395 106.623 179.838C105.957 179.191 105.604 178.304 105.556 177.177C105.508 175.985 105.787 175.041 106.399 174.35C106.929 173.748 107.663 173.434 108.601 173.407C109.363 173.383 110.012 173.585 110.542 174.006C110.923 174.309 111.208 174.763 111.405 175.371L110.059 175.744C109.957 175.368 109.774 175.086 109.505 174.89C109.237 174.697 108.927 174.605 108.577 174.614C108.074 174.629 107.673 174.825 107.371 175.205C107.068 175.581 106.936 176.195 106.97 177.044C107.007 177.924 107.187 178.547 107.514 178.909C107.836 179.271 108.248 179.446 108.744 179.431C109.108 179.419 109.413 179.292 109.668 179.049C109.923 178.802 110.1 178.423 110.195 177.904ZM99.6727 177.121C99.6727 177.924 99.8562 178.527 100.217 178.93C100.58 179.333 101.029 179.535 101.569 179.535C102.106 179.535 102.555 179.333 102.912 178.936C103.269 178.535 103.442 177.924 103.442 177.097C103.442 176.284 103.272 175.685 102.925 175.296C102.579 174.911 102.127 174.715 101.569 174.715C101.008 174.715 100.553 174.911 100.2 175.302C99.8494 175.694 99.6727 176.299 99.6727 177.121ZM98.2554 177.168C98.2554 176.335 98.4016 175.649 98.6973 175.11C98.9896 174.57 99.3702 174.169 99.8426 173.905C100.315 173.641 100.889 173.508 101.562 173.508C102.538 173.508 103.33 173.822 103.945 174.448C104.56 175.074 104.866 175.967 104.866 177.127C104.866 178.295 104.543 179.209 103.891 179.867C103.32 180.452 102.548 180.742 101.569 180.742C100.58 180.742 99.8019 180.452 99.2309 179.879C98.5817 179.221 98.2554 178.316 98.2554 177.168ZM93.1165 176.519L94.1396 176.533C94.7615 176.542 95.1592 176.524 95.3291 176.483C95.5025 176.438 95.6418 176.349 95.7506 176.21C95.8559 176.071 95.9137 175.887 95.9205 175.655C95.9239 175.43 95.8729 175.252 95.771 175.116C95.669 174.976 95.5263 174.881 95.3461 174.831C95.2204 174.792 94.8465 174.772 94.2313 174.763L93.1539 174.745L93.1165 176.519ZM91.6619 180.535L91.8046 173.541L94.7038 173.585C95.4447 173.594 95.9715 173.665 96.2876 173.796C96.6036 173.926 96.8586 174.149 97.0557 174.46C97.2528 174.774 97.348 175.148 97.3378 175.578C97.3276 176.127 97.161 176.566 96.845 176.895C96.5255 177.224 96.0768 177.426 95.5025 177.503C95.7914 177.687 96.0327 177.883 96.2196 178.099C96.4065 178.313 96.6648 178.696 96.9843 179.247L97.783 180.624L96.1448 180.6L95.1796 179.063C94.8329 178.509 94.595 178.162 94.4692 178.019C94.3435 177.88 94.2075 177.785 94.0682 177.729C93.9254 177.672 93.6943 177.646 93.3783 177.64L93.0928 177.637L93.0316 180.555L91.6619 180.535ZM86.9173 174.582L86.8357 176.566L87.5936 176.587C88.1068 176.602 88.4535 176.584 88.6404 176.527C88.8239 176.474 88.9803 176.37 89.1026 176.213C89.225 176.059 89.293 175.869 89.3032 175.641C89.31 175.409 89.259 175.21 89.1468 175.05C89.0313 174.887 88.8851 174.774 88.7118 174.715C88.5351 174.656 88.1612 174.62 87.5868 174.602L86.9173 174.582ZM85.3063 180.348L85.5951 173.36L87.8043 173.425C88.6302 173.449 89.1672 173.499 89.4153 173.573C89.8164 173.692 90.1393 173.932 90.3874 174.291C90.6355 174.653 90.7476 175.11 90.7272 175.667C90.7034 176.174 90.5743 176.593 90.333 176.928C90.0917 177.263 89.7994 177.494 89.4527 177.622C89.106 177.752 88.5181 177.803 87.6888 177.779L86.7847 177.752L86.6759 180.389L85.3063 180.348ZM79.9702 180.075L80.5514 173.096L81.9177 173.179L81.3399 180.155L79.9702 180.075ZM74.9265 175.676L75.9461 175.753C76.5647 175.798 76.9624 175.804 77.1357 175.771C77.3124 175.738 77.4586 175.655 77.5775 175.525C77.6965 175.391 77.7713 175.21 77.795 174.979C77.8188 174.757 77.7814 174.576 77.6931 174.433C77.6013 174.291 77.4688 174.187 77.292 174.125C77.1663 174.077 76.7958 174.036 76.184 173.988L75.11 173.911L74.9265 175.676ZM73.1422 179.597L73.8661 172.63L76.7516 172.844C77.4892 172.897 78.0126 173.001 78.3151 173.149C78.6175 173.297 78.8554 173.532 79.0254 173.855C79.1987 174.181 79.2599 174.558 79.2157 174.988C79.1579 175.534 78.9608 175.961 78.6141 176.272C78.2675 176.581 77.8052 176.756 77.2241 176.8C77.4994 176.999 77.7237 177.21 77.8902 177.435C78.0602 177.66 78.2845 178.058 78.5598 178.627L79.2429 180.048L77.6115 179.927L76.772 178.337C76.4729 177.764 76.2656 177.402 76.1501 177.254C76.0379 177.109 75.9121 177.005 75.7728 176.94C75.6368 176.877 75.4091 176.836 75.0931 176.812L74.811 176.791L74.5085 179.698L73.1422 179.597ZM69.203 176.646L69.3492 175.474L72.2959 175.735L71.9526 178.506C71.6161 178.773 71.1641 178.989 70.5931 179.152C70.0221 179.318 69.4613 179.375 68.9107 179.324C68.2446 179.265 67.6702 179.078 67.1944 178.755C66.7186 178.432 66.3617 177.981 66.134 177.402C65.9063 176.824 65.8349 176.163 65.9301 175.418C66.0252 174.65 66.2597 174.009 66.6268 173.493C66.9973 172.974 67.4425 172.603 67.9591 172.378C68.4757 172.152 69.0705 172.069 69.7434 172.129C70.5523 172.2 71.1777 172.428 71.6229 172.82C72.0648 173.208 72.3129 173.742 72.3707 174.427L70.984 174.57C70.9296 174.202 70.7767 173.911 70.5285 173.698C70.2804 173.484 69.9712 173.36 69.5939 173.327C69.0127 173.277 68.5131 173.425 68.1086 173.775C67.6974 174.122 67.4459 174.688 67.3473 175.471C67.2454 176.308 67.3575 176.963 67.694 177.432C67.9829 177.841 68.4145 178.067 68.9821 178.117C69.2506 178.141 69.5361 178.114 69.8352 178.034C70.1377 177.951 70.4096 177.83 70.6611 177.666L70.7699 176.785L69.203 176.646ZM59.4963 178.153L60.5091 171.212L65.529 171.731L65.3591 172.906L61.6986 172.526L61.4743 174.066L64.8731 174.416L64.7031 175.584L61.3044 175.234L61.0291 177.124L64.8085 177.515L64.6385 178.684L59.4963 178.153ZM55.1934 177.56L56.1519 171.808L54.1466 171.571L54.3438 170.397L59.707 171.031L59.5098 172.203L57.5114 171.969L56.5495 177.723L55.1934 177.56ZM46.9277 176.329L48.3722 169.441L49.6909 169.637L51.4718 174.644L52.4371 170.044L53.698 170.23L52.2535 177.118L50.8907 176.916L49.1301 172.025L48.1887 176.516L46.9277 176.329ZM44.3379 175.94L45.9251 169.074L47.271 169.293L45.6872 176.16L44.3379 175.94Z" fill="#232559"/>
<path fill-rule="evenodd" clip-rule="evenodd" d="M8.78984 153.025C8.41598 148.41 19.8969 145.735 29.3284 150.522C40.3573 158.569 18.4151 160.645 14.2754 154.772C13.0858 152.661 15.1455 152.201 16.9876 153.257C20.4135 155.223 28.4379 155.894 27.6494 152.892C25.3281 150.311 16.2569 150.371 14.6867 151.157C3.09016 156.172 26.3715 162.641 32.0066 159.53C46.2575 155.25 52.0388 157.822 51.9096 158.225C52.0727 160.141 50.2952 160.01 46.2847 159.865C42.7466 159.741 38.7395 160.067 35.6738 161.582C35.6738 165.444 35.2898 170.143 35.2898 174.001C25.8923 174.417 17.6334 173.325 10.4484 168.923C10.4722 164.124 8.19167 154.313 8.78984 153.025Z" fill="#BA8F4A"/>
<path fill-rule="evenodd" clip-rule="evenodd" d="M169.587 -0.0030365H24.5287V118.66C24.5287 158.207 65.1198 143.709 97.0476 159.814C134.036 140.066 169.587 161.125 169.587 118.66V-0.0030365Z" fill="#232559"/>
<path fill-rule="evenodd" clip-rule="evenodd" d="M24.4268 59.5876H169.546V61.7588H24.4268V59.5876Z" fill="white"/>
<path fill-rule="evenodd" clip-rule="evenodd" d="M143.24 3.29245L142.608 4.39879L142.22 5.07506L141.737 5.91446L142.302 6.73605L141.245 7.48944C141.027 7.64367 141.72 7.9907 141.551 8.18646L140.986 8.83603C138.597 11.5856 140.154 15.916 141.833 21.771C140.782 23.3519 134.954 21.2104 132.483 18.7457C131.844 21.2431 135.426 28.3794 139.532 29.379L140.235 31.1408C135.875 32.0959 128.567 27.2256 128.024 26.8222C127.602 33.2438 133.122 37.7819 138.376 39.8937C138.896 40.1043 138.692 41.8276 139.097 42.2161C134.036 43.2928 129.325 39.1848 125.124 36.9751C125.515 42.1123 128.36 46.0839 132.483 48.2966L135.008 48.3618L134.529 49.4474L136.259 49.1508L136.49 50.7969L137.958 49.9279L138.73 51.144L139.379 52.2207C140.358 54.2702 139.997 57.3579 140.378 60.1875C143.814 60.1875 145.755 60.1875 149.194 60.1875C148.62 55.6939 148.586 55.6939 150.054 49.2042C155.591 47.208 160.913 42.8894 160.723 37.1501C157.572 39.3123 151.839 41.8305 147.726 41.4687L148.379 39.5496C149.123 38.5975 157.436 39.4073 160.114 26.4189C156.189 30.0048 151.611 30.5951 148.093 30.7523C147.886 30.4616 148.219 30.1739 148.209 29.6192C150.88 26.9557 154.004 26.6591 154.388 18.7575C151.522 20.7359 147.243 22.6875 144.898 21.9698C148.603 14.5457 148.059 12.0601 146.105 8.88052C145.976 8.66993 145.055 8.48307 145.112 8.24578L145.279 7.56359L144.283 6.39495L144.412 5.51997C144.524 4.77845 143.471 4.10219 143.24 3.29245Z" fill="#BA8F4A"/>
<path fill-rule="evenodd" clip-rule="evenodd" d="M44.7182 102.127C46.9206 103.598 49.7857 105.073 51.9915 106.544C59.8494 105.135 88.6435 98.7341 92.7593 114.419C91.5324 129.246 78.522 130.124 72.044 126.9C67.0139 122.688 64.9951 115.119 73.706 112.061C81.2478 110.474 83.0627 116.519 79.9121 117.613C72.5369 120.173 81.8018 125.266 85.4079 117.714C87.7462 105.159 61.508 104.447 63.2447 120.55C64.4513 131.782 79.3105 134.793 87.9093 129.973C102.748 121.33 97.0927 107.306 88.1303 101.929C70.3549 101.863 62.4936 102.19 44.7182 102.127ZM44.7182 102.127C46.9206 100.656 49.7857 99.182 51.9915 97.7108C59.8494 99.1197 88.6435 105.52 92.7593 89.8389C91.5324 75.0086 78.522 74.1306 72.044 77.3547C67.0139 81.5666 64.9951 89.136 73.706 92.194C81.2478 93.7808 83.0627 87.736 79.9121 86.6415C72.5369 84.0818 81.8018 78.989 85.4079 86.5406C87.7462 99.096 61.508 99.8079 63.2447 83.7051C64.4513 72.4726 79.3105 69.462 87.9093 74.2819C102.748 82.925 97.0927 96.56 88.1303 101.935C70.3549 102 62.4936 102.065 44.7182 102.127ZM97.0553 99.7278C98.5746 99.7278 99.8117 100.804 99.8117 102.127C99.8117 103.45 98.5746 104.527 97.0553 104.527C95.5395 104.527 94.3024 103.45 94.3024 102.127C94.3024 100.804 95.5395 99.7278 97.0553 99.7278ZM149.396 102.127C147.193 100.656 144.328 99.182 142.123 97.7108C134.265 99.1197 105.471 105.52 101.355 89.8389C102.582 75.0086 115.592 74.1306 122.07 77.3547C127.1 81.5666 129.119 89.136 120.408 92.194C112.866 93.7808 111.051 87.736 114.202 86.6415C121.574 84.0818 112.312 78.989 108.706 86.5406C106.368 99.096 132.606 99.8079 130.869 83.7051C129.663 72.4726 114.804 69.462 106.205 74.2819C91.3659 82.925 97.0214 96.9486 105.984 102.326C123.759 102.391 131.62 102.065 149.396 102.127ZM149.396 102.127C147.193 103.598 144.328 105.073 142.123 106.544C134.265 105.135 105.471 98.7341 101.355 114.419C102.582 129.246 115.592 130.124 122.07 126.9C127.1 122.688 129.119 115.119 120.408 112.061C112.866 110.474 111.051 116.519 114.202 117.613C121.574 120.173 112.312 125.266 108.706 117.714C106.368 105.159 132.606 104.447 130.869 120.55C129.663 131.782 114.804 134.793 106.205 129.973C91.3659 121.33 97.0214 107.698 105.984 102.32C123.759 102.255 131.62 102.19 149.396 102.127Z" fill="#BA8F4A"/>
<path d="M44.7182 102.127C46.9206 103.598 49.7857 105.073 51.9915 106.544C59.8494 105.135 88.6435 98.7341 92.7593 114.419C91.5324 129.246 78.522 130.124 72.044 126.9C67.0139 122.688 64.9951 115.119 73.706 112.061C81.2478 110.474 83.0627 116.519 79.9121 117.613C72.5369 120.173 81.8018 125.266 85.4079 117.714C87.7462 105.159 61.508 104.447 63.2447 120.55C64.4513 131.782 79.3105 134.793 87.9093 129.973C102.748 121.33 97.0927 107.306 88.1303 101.929C70.3549 101.863 62.4936 102.19 44.7182 102.127ZM44.7182 102.127C46.9206 100.656 49.7857 99.182 51.9915 97.7108C59.8494 99.1197 88.6435 105.52 92.7593 89.8389C91.5324 75.0086 78.522 74.1306 72.044 77.3547C67.0139 81.5666 64.9951 89.136 73.706 92.194C81.2478 93.7808 83.0627 87.736 79.9121 86.6415C72.5369 84.0818 81.8018 78.989 85.4079 86.5406C87.7462 99.096 61.508 99.8079 63.2447 83.7051C64.4513 72.4726 79.3105 69.462 87.9093 74.2819C102.748 82.925 97.0927 96.56 88.1303 101.935C70.3549 102 62.4936 102.065 44.7182 102.127ZM149.396 102.127C147.193 100.656 144.328 99.182 142.123 97.7108C134.265 99.1197 105.471 105.52 101.355 89.8389C102.582 75.0086 115.592 74.1306 122.07 77.3547C127.1 81.5666 129.119 89.136 120.408 92.194C112.866 93.7808 111.051 87.736 114.202 86.6415C121.574 84.0818 112.312 78.989 108.706 86.5406C106.368 99.096 132.606 99.8079 130.869 83.7051C129.663 72.4726 114.804 69.462 106.205 74.2819C91.3659 82.925 97.0213 96.9486 105.984 102.326C123.759 102.391 131.62 102.065 149.396 102.127ZM149.396 102.127C147.193 103.598 144.328 105.073 142.123 106.544C134.265 105.135 105.471 98.7341 101.355 114.419C102.582 129.246 115.592 130.124 122.07 126.9C127.1 122.688 129.119 115.119 120.408 112.061C112.866 110.474 111.051 116.519 114.202 117.613C121.574 120.173 112.312 125.266 108.706 117.714C106.368 105.159 132.606 104.447 130.869 120.55C129.663 131.782 114.804 134.793 106.205 129.973C91.3659 121.33 97.0213 107.698 105.984 102.32C123.759 102.255 131.62 102.19 149.396 102.127ZM97.0553 99.7278C98.5746 99.7278 99.8117 100.804 99.8117 102.127C99.8117 103.45 98.5746 104.527 97.0553 104.527C95.5395 104.527 94.3024 103.45 94.3024 102.127C94.3024 100.804 95.5395 99.7278 97.0553 99.7278Z" stroke="#BA8F4A" stroke-width="0.144314" stroke-miterlimit="2.613"/>
<path fill-rule="evenodd" clip-rule="evenodd" d="M97.7789 3.29245L97.1468 4.39879L96.7593 5.07506L96.2767 5.91446L96.8409 6.73605L95.7839 7.48944C95.5664 7.64367 96.2597 7.9907 96.0898 8.18646L95.5256 8.83603C93.1363 11.5856 94.6929 15.916 96.3719 21.771C95.3216 23.3519 89.4928 21.2104 87.0219 18.7457C86.383 21.2431 89.9652 28.3794 94.0709 29.379L94.7744 31.1408C90.4139 32.0959 83.1066 27.2256 82.5628 26.8222C82.1413 33.2438 87.6609 37.7819 92.9153 39.8937C93.4387 40.1043 93.2314 41.8276 93.6359 42.2161C88.5752 43.2928 83.8645 39.1848 79.6637 36.9751C80.0545 42.1123 82.8993 46.0839 87.0253 48.2966L89.5472 48.3618L89.068 49.4474L90.7979 49.1508L91.029 50.7969L92.4973 49.9279L93.2688 51.144L93.9214 52.2207C94.8968 54.2702 94.5365 57.3579 94.9172 60.1875C98.3533 60.1875 100.294 60.1875 103.734 60.1875C103.159 55.6939 103.125 55.6939 104.593 49.2042C110.13 47.208 115.452 42.8894 115.262 37.1501C112.111 39.3123 106.378 41.8305 102.265 41.4687L102.918 39.5496C103.662 38.5975 111.975 39.4073 114.654 26.4189C110.728 30.0048 106.15 30.5951 102.632 30.7523C102.425 30.4616 102.758 30.1739 102.748 29.6192C105.419 26.9557 108.543 26.6591 108.927 18.7575C106.062 20.7359 101.783 22.6875 99.4375 21.9698C103.142 14.5457 102.598 12.0601 100.644 8.88052C100.515 8.66993 99.5939 8.48307 99.6516 8.24578L99.8182 7.56359L98.8223 6.39495L98.9515 5.51997C99.0637 4.77845 98.01 4.10219 97.7789 3.29245Z" fill="#BA8F4A"/>
<path fill-rule="evenodd" clip-rule="evenodd" d="M50.8468 3.29245L50.2146 4.39879L49.8272 5.07506L49.3479 5.91446L49.9087 6.73605L48.8517 7.48944C48.6342 7.64367 49.3275 7.9907 49.1576 8.18646L48.5934 8.83603C46.2041 11.5856 47.7607 15.916 49.4397 21.771C48.3895 23.3519 42.5607 21.2104 40.0898 18.7457C39.4508 21.2431 43.0331 28.3794 47.1388 29.379L47.8423 31.1408C43.4817 32.0959 36.1744 27.2256 35.6306 26.8222C35.2092 33.2438 40.7287 37.7819 45.9832 39.8937C46.5066 40.1043 46.2993 41.8276 46.7037 42.2161C41.643 43.2928 36.9324 39.1848 32.7315 36.9751C33.1224 42.1123 35.9671 46.0839 40.0932 48.2966L42.615 48.3618L42.1358 49.4474L43.8658 49.1508L44.0969 50.7969L45.5651 49.9279L46.3367 51.144L46.9858 52.2207C47.9646 54.2702 47.6044 57.3579 47.985 60.1875C51.4212 60.1875 53.3618 60.1875 56.8014 60.1875C56.227 55.6939 56.193 55.6939 57.6612 49.2042C63.1978 47.208 68.5202 42.8894 68.3299 37.1501C65.1792 39.3123 59.4456 41.8305 55.3331 41.4687L55.9857 39.5496C56.73 38.5975 65.0433 39.4073 67.7215 26.4189C63.796 30.0048 59.2179 30.5951 55.7002 30.7523C55.4928 30.4616 55.8259 30.1739 55.8157 29.6192C58.4871 26.9557 61.6106 26.6591 61.9946 18.7575C59.1295 20.7359 54.8505 22.6875 52.5054 21.9698C56.21 14.5457 55.6662 12.0601 53.7119 8.88052C53.5828 8.66993 52.6617 8.48307 52.7195 8.24578L52.886 7.56359L51.8902 6.39495L52.0193 5.51997C52.1315 4.77845 51.0779 4.10219 50.8468 3.29245Z" fill="#BA8F4A"/>
<path fill-rule="evenodd" clip-rule="evenodd" d="M24.5287 59.3295H169.543V61.7617H24.5287V59.3295Z" fill="#BA8F4A"/>
</g>
</svg>
